<?xml version="1.0" standalone="no"?><!DOCTYPE svg PUBLIC "-//W3C//DTD SVG 1.1//EN" "http://www.w3.org/Graphics/SVG/1.1/DTD/svg11.dtd"><svg t="1656852961119" class="icon" viewBox="0 0 1024 1024" version="1.1" xmlns="http://www.w3.org/2000/svg" p-id="17848" width="32" height="32" xmlns:xlink="http://www.w3.org/1999/xlink"><defs><style type="text/css">@font-face { font-family: feedback-iconfont; src: url("//at.alicdn.com/t/font_1031158_u69w8yhxdu.woff2?t=1630033759944") format("woff2"), url("//at.alicdn.com/t/font_1031158_u69w8yhxdu.woff?t=1630033759944") format("woff"), url("//at.alicdn.com/t/font_1031158_u69w8yhxdu.ttf?t=1630033759944") format("truetype"); }
</style></defs><path d="M627.2 620.8l-12.8-128 89.6-96L576 377.6 512 262.4 448 377.6 326.4 403.2l89.6 96-12.8 128L512 569.6 627.2 620.8zM512 620.8l-172.8 83.2 25.6-192-128-140.8 185.6-38.4L512 166.4l89.6 166.4 185.6 38.4-128 140.8 25.6 192L512 620.8zM851.2 889.6 851.2 108.8 172.8 108.8l0 780.8L512 742.4 851.2 889.6zM512 793.6 128 960 128 64l768 0 0 896L512 793.6z" p-id="17849" fill="#2c2c2c"></path></svg>