<?xml version="1.0" standalone="no"?><!DOCTYPE svg PUBLIC "-//W3C//DTD SVG 1.1//EN" "http://www.w3.org/Graphics/SVG/1.1/DTD/svg11.dtd"><svg t="1657878563132" class="icon" viewBox="0 0 1024 1024" version="1.1" xmlns="http://www.w3.org/2000/svg" p-id="1933" xmlns:xlink="http://www.w3.org/1999/xlink" width="32" height="32"><defs><style type="text/css">@font-face { font-family: feedback-iconfont; src: url("//at.alicdn.com/t/font_1031158_u69w8yhxdu.woff2?t=1630033759944") format("woff2"), url("//at.alicdn.com/t/font_1031158_u69w8yhxdu.woff?t=1630033759944") format("woff"), url("//at.alicdn.com/t/font_1031158_u69w8yhxdu.ttf?t=1630033759944") format("truetype"); }
</style></defs><path d="M906.092102 308.984237c0 2.486634-0.901533 4.976338-2.721994 6.945179L524.814352 725.19152c-3.837398 4.148483-10.311857 4.40124-14.461363 0.563842-4.14746-3.838422-4.40124-10.311857-0.563842-14.461363l378.556779-409.261081c3.837398-4.149507 10.31288-4.40124 14.46034-0.563842C904.986931 303.484989 906.092102 306.231543 906.092102 308.984237z" p-id="1934" fill="#000000"></path><path d="M523.796162 718.66999c0 2.739391-1.092891 5.471618-3.255137 7.486508-4.133134 3.853771-10.608615 3.62762-14.46341-0.505513L120.654452 312.305889c-3.852748-4.133134-3.62762-10.606569 0.505513-14.462387 4.134157-3.853771 10.608615-3.62762 14.46341 0.505513l385.424186 413.345096C522.886443 713.664999 523.796162 716.171076 523.796162 718.66999z" p-id="1935" fill="#000000"></path></svg>